<?xml version="1.0" encoding="UTF-8" standalone="no"?>
<!-- Created with Inkscape (http://www.inkscape.org/) -->

<svg
   xmlns:dc="http://purl.org/dc/elements/1.1/"
   xmlns:cc="http://creativecommons.org/ns#"
   xmlns:rdf="http://www.w3.org/1999/02/22-rdf-syntax-ns#"
   xmlns:svg="http://www.w3.org/2000/svg"
   xmlns="http://www.w3.org/2000/svg"
   xmlns:sodipodi="http://sodipodi.sourceforge.net/DTD/sodipodi-0.dtd"
   xmlns:inkscape="http://www.inkscape.org/namespaces/inkscape"
   width="1024.7606"
   height="780"
   viewBox="0 0 271.13459 206.37501"
   version="1.1"
   id="svg862"
   inkscape:version="0.92.5 (2060ec1f9f, 2020-04-08)"
   sodipodi:docname="logo.svg">
  <defs
     id="defs856" />
  <sodipodi:namedview
     id="base"
     pagecolor="#ffffff"
     bordercolor="#666666"
     borderopacity="1.0"
     inkscape:pageopacity="0.0"
     inkscape:pageshadow="2"
     inkscape:zoom="0.7"
     inkscape:cx="659.98171"
     inkscape:cy="117.99844"
     inkscape:document-units="mm"
     inkscape:current-layer="layer1"
     showgrid="false"
     fit-margin-top="90"
     fit-margin-left="90"
     fit-margin-right="90"
     fit-margin-bottom="90"
     inkscape:window-width="1920"
     inkscape:window-height="1030"
     inkscape:window-x="0"
     inkscape:window-y="32"
     inkscape:window-maximized="1"
     units="px" />
  <metadata
     id="metadata859">
    <rdf:RDF>
      <cc:Work
         rdf:about="">
        <dc:format>image/svg+xml</dc:format>
        <dc:type
           rdf:resource="http://purl.org/dc/dcmitype/StillImage" />
        <dc:title></dc:title>
      </cc:Work>
    </rdf:RDF>
  </metadata>
  <g
     inkscape:label="Layer 1"
     inkscape:groupmode="layer"
     id="layer1"
     transform="translate(-195.77797,60.213478)">
    <path
       style="fill:#2f2f2f;fill-opacity:1;stroke:#000000;stroke-width:0.47785047;stroke-miterlimit:4;stroke-dasharray:none;stroke-opacity:1"
       d="m 236.63372,121.99091 c -4.82714,-0.77212 -8.96467,-3.23325 -12.01202,-7.14514 -4.19493,-5.38503 -5.7883,-13.49786 -4.16898,-21.227056 2.02388,-9.659998 8.78257,-21.053017 21.67765,-36.54154 3.80432,-4.569415 7.48266,-8.783438 15.47146,-17.724553 l 5.24815,-5.873746 0.0602,-1.218746 c 0.0348,-0.670346 0.19653,-5.424013 0.36259,-10.563712 0.3696,-11.409654 0.86787,-25.7135278 0.93874,-26.9353796 0.0282,-0.5352198 0.0148,-0.8387687 -0.0348,-0.7495728 -0.0504,0.082642 -0.36162,0.8753823 -0.69662,1.7620276 -3.48832,9.2318383 -8.80605,18.9897408 -15.33324,28.1359398 -3.8896,5.450257 -8.03413,10.590306 -14.37374,17.826081 -6.27251,7.159204 -6.74998,7.706997 -7.82192,8.973527 -1.15544,1.365029 -1.52721,1.640833 -2.34142,1.736914 -0.99098,0.117375 -1.96217,-0.413656 -2.37329,-1.2965 -0.32503,-0.698496 -0.33253,-1.571821 -0.02,-2.15182 0.28548,-0.526861 2.2274,-2.818054 6.62153,-7.811816 7.26702,-8.258697 10.36808,-11.994605 14.14509,-17.040751 13.78197,-18.4129492 21.22586,-36.564763 23.28221,-56.773493 0.21472,-2.111296 0.3706,-2.575355 1.02283,-3.047831 0.55468,-0.401654 0.99962,-0.524157 1.73569,-0.477279 0.75323,0.05006 1.30339,0.376616 1.78842,1.068195 l 0.30266,0.431709 -0.0148,1.514623 c -0.006,0.833012 -0.13048,4.190648 -0.27424,7.461394 -0.49436,11.266163 -1.05052,26.21058844 -1.81319,48.711414 -0.0854,2.522024 -0.13492,4.605477 -0.11138,4.629919 0.053,0.0531 4.1482,-4.712452 6.41628,-7.466302 6.92464,-8.407393 11.56253,-14.9934085 14.53389,-20.63878438 0.7382,-1.40254552 0.97521,-1.69131732 1.65053,-2.01058852 1.54061,-0.7282885 3.3369,0.3841284 3.34537,2.07153886 0.002,0.38863582 -0.1681,1.15508556 -0.55432,2.49863044 -1.58478,5.512961 -2.6137,10.8965636 -3.15921,16.5300706 -0.073,0.753233 -0.12677,2.748392 -0.12751,4.747408 -0.002,2.799475 0.0282,3.668046 0.17515,4.617147 0.44774,2.960541 1.2689,4.8627 2.27949,5.281281 0.40313,0.166767 1.03265,0.01501 1.62542,-0.394146 2.62776,-1.811359 5.60831,-8.7191 7.09801,-16.450531 0.55401,-2.87505 0.80728,-4.975734 1.05194,-8.724619 0.0791,-1.2115748 0.11232,-1.3697833 0.37561,-1.7959315 0.15883,-0.2569363 0.48177,-0.6028369 0.71755,-0.7685552 0.36358,-0.2554091 0.54126,-0.3069832 1.1683,-0.3385556 0.60793,-0.029969 0.82012,0.00146 1.19273,0.1818169 0.57108,0.2764375 1.09768,0.8849939 1.23787,1.4303369 0.063,0.2459031 0.12677,1.9362141 0.15291,4.0686055 0.0282,2.411488 0.0999,4.156188 0.20848,5.147212 0.57255,5.241363 1.57968,8.887523 3.01353,10.91018 0.57399,0.809725 1.15844,1.297672 1.7943,1.498099 0.6492,0.204828 0.89212,0.143211 1.47846,-0.372612 1.07579,-0.946949 2.27193,-2.635806 4.91422,-6.938388 3.75084,-6.107632 6.0346,-9.2707 8.14039,-11.2746294 2.21044,-2.1035411 4.73451,-3.5591175 7.25244,-4.1823378 0.72906,-0.1803156 1.19449,-0.2228619 2.49536,-0.2283683 0.87956,-0.00352 2.01512,0.029951 2.52362,0.0761 0.83382,0.074135 0.9245,0.06611 0.9245,-0.086145 0,-0.3385519 0.54738,-1.1686579 0.95637,-1.4500199 0.60729,-0.4176839 1.2332,-0.5511997 1.89319,-0.4036575 0.93959,0.210333 1.62762,0.8765815 1.82851,1.7709443 0.0628,0.2779666 0.0198,1.4995497 -0.13678,3.8449313 -0.37459,5.6410723 -0.47524,8.7163993 -0.41267,12.6245383 0.0571,3.579497 0.12621,4.690563 0.4242,6.80447 0.31965,2.266504 0.89576,4.157594 1.46454,4.805353 0.24535,0.279464 0.34658,0.329541 0.56413,0.276968 1.92307,-0.461254 4.0954,-3.958972 6.54137,-10.531766 0.35763,-0.960716 1.35289,-3.805669 2.21192,-6.322079 0.85904,-2.516416 1.76609,-5.124976 2.01563,-5.796825 2.61219,-7.031395 4.8978,-9.86136952 7.98604,-9.88796371 1.15541,-0.0100083 1.79229,0.25740521 2.64513,1.11016511 0.52265,0.5226039 0.77063,0.8831406 1.17662,1.7104943 1.09751,2.2365529 1.70448,4.5194886 2.68345,10.0934013 l 0.0617,0.350071 0.1555,-0.399653 c 1.30402,-3.360101 3.40053,-7.6770588 4.64938,-9.573655 0.89911,-1.3654816 2.05672,-2.5898873 2.78509,-2.9458165 2.07902,-1.01590951 4.77126,0.05006 5.96849,2.3631649 0.87608,1.6926647 1.15842,3.3081009 1.15477,6.6082486 -0.001,1.291819 -0.0587,2.933403 -0.12733,3.648021 -0.18033,1.880175 -0.58372,5.413095 -0.77089,6.746326 -0.1657,1.181333 -0.2481,3.824349 -0.12233,3.950856 0.23091,0.232875 1.52762,-0.595524 2.87908,-1.839107 1.19612,-1.100648 2.778,-2.824162 5.28607,-5.759761 4.0795,-4.774905 5.86422,-6.728956 7.65833,-8.3853662 3.49316,-3.2251176 6.33175,-4.9217412 9.3925,-5.613874 1.33002,-0.300993 3.87624,-0.2443833 5.15312,0.1141869 0.11584,0.029932 0.18857,-0.083124 0.28142,-0.4462297 0.15087,-0.5896648 0.67445,-1.233517 1.24753,-1.5349085 0.57312,-0.30148976 1.55431,-0.30148976 2.12732,0 0.7908,0.4156767 1.33645,1.2891537 1.33412,2.1351914 0,0.1857979 -0.25147,1.5525824 -0.55717,3.0367601 -1.16307,5.642381 -1.50582,7.794349 -1.74853,10.978855 -0.13122,1.719656 -0.073,5.344833 0.10712,6.711518 0.81933,6.210448 3.17423,9.471328 7.10216,9.834569 1.0915,0.101158 1.91277,-2.98e-4 3.0968,-0.381621 2.53604,-0.816785 5.9165,-2.997299 9.52711,-6.145396 1.1471,-1.000132 1.35336,-1.10285 2.2206,-1.106104 0.61547,-0.0022 0.77104,0.03505 1.19626,0.299493 0.26895,0.166267 0.62441,0.495309 0.7901,0.730895 0.25523,0.363596 0.30703,0.541236 0.33857,1.168209 0.0647,1.287002 -0.26147,1.697727 -3.28239,4.132856 -4.06332,3.275252 -7.80487,5.294051 -11.04394,5.958989 -1.01228,0.207818 -3.0938,0.211354 -4.25233,0.005 -2.91907,-0.51469 -5.23691,-1.943831 -7.05403,-4.349361 -1.54314,-2.042889 -2.92814,-5.768379 -3.29016,-8.850265 -0.0404,-0.329534 -0.091,-0.634736 -0.11584,-0.677556 -0.0248,-0.04509 -0.28358,0.301493 -0.57449,0.765248 -2.59295,4.130099 -5.86673,6.532476 -9.32411,6.842233 -2.38335,0.213347 -4.0226,-0.338049 -5.68649,-1.912876 -1.7171,-1.625405 -2.92621,-4.030082 -3.25031,-6.464211 l -0.11955,-0.899569 -0.89792,0.973489 c -2.7116,2.939804 -4.86765,4.61344 -6.81213,5.28779 -0.69873,0.242391 -0.95106,0.277966 -2.00106,0.280461 -1.16921,0.0028 -1.22005,-0.005 -1.89811,-0.340051 -2.46883,-1.215386 -3.21469,-4.2504 -2.39229,-9.734315 0.49836,-3.321525 0.8922,-8.216924 0.80984,-10.0617454 -0.0754,-1.6995297 -0.34404,-3.1982806 -0.57238,-3.1982806 -0.33252,0 -2.44113,4.003395 -3.8745,7.356382 -2.02187,4.729828 -4.17343,10.979691 -4.65642,13.525955 -0.27018,1.423824 -0.82894,2.084605 -1.96336,2.321493 -1.03752,0.216835 -2.13654,-0.326032 -2.60052,-1.284798 -0.21696,-0.448233 -0.22569,-0.563421 -0.20276,-2.575459 0.0665,-5.832032 -1.31395,-15.3837967 -2.7143,-18.7786489 l -0.24088,-0.584455 -0.31287,0.3796228 c -0.41972,0.5090316 -1.5713,2.7872059 -2.21238,4.3764091 -0.68029,1.686206 -1.09734,2.850608 -2.40247,6.707359 -2.91587,8.616633 -4.2732,11.982285 -6.0042,14.88808 -1.63904,2.751599 -3.53914,4.614091 -5.48983,5.381197 -2.45388,0.964926 -4.99083,0.273943 -6.42707,-1.750561 -1.62365,-2.288642 -2.44759,-5.71409 -2.79471,-11.618139 l -0.0248,-0.395645 -0.6996,1.179928 c -1.50137,2.53214 -3.57567,4.900711 -5.37675,6.139584 -1.03797,0.713968 -2.43707,1.363276 -3.52443,1.635672 -1.18839,0.297466 -3.52363,0.320533 -4.59146,0.04509 -2.10913,-0.544991 -3.705,-1.788722 -4.56931,-3.561169 -0.25427,-0.522205 -0.4923,-1.095644 -0.52844,-1.274282 -0.0769,-0.383128 -0.15179,-0.405162 -0.34006,-0.100157 -0.80001,1.295218 -2.61883,3.265837 -3.64189,3.946 -1.13246,0.752829 -1.81467,0.965275 -3.1135,0.969731 -1.2527,0.0041 -1.88834,-0.126216 -2.93246,-0.603236 -1.42675,-0.651413 -2.67721,-1.753717 -3.65065,-3.217959 -0.56012,-0.842624 -1.54557,-2.884012 -1.86607,-3.865966 -0.18256,-0.559966 -0.24363,-0.658525 -0.3083,-0.499818 -0.0448,0.108701 -0.31286,0.849989 -0.59727,1.647044 -3.00279,8.427171 -7.201,12.575605 -11.78884,11.649188 -3.43458,-0.693534 -5.47367,-3.824053 -6.26099,-9.61216 -0.14104,-1.037343 -0.17459,-2.015444 -0.17329,-5.035379 0.001,-3.851292 0.0808,-5.127176 0.54093,-8.694759 0.10267,-0.796755 0.17718,-1.458235 0.16569,-1.469952 -0.009,-0.01001 -0.47478,0.59527 -1.02959,1.348753 -3.40789,4.630267 -8.22639,10.495152 -14.46925,17.611182 -1.47086,1.676588 -2.70839,3.138277 -2.74996,3.248209 -0.0404,0.110165 -0.10582,1.346801 -0.14289,2.74849 -0.0349,1.401743 -0.13308,4.797389 -0.21273,7.545937 -0.3135,10.740996 -0.60628,23.297146 -0.70034,30.033655 -0.0662,4.744871 -0.18256,7.575969 -0.40365,9.794653 -0.75147,7.549495 -2.64839,14.506215 -5.53311,20.292425 -3.24269,6.50422 -7.64663,11.38396 -12.70112,14.07323 -1.7164,0.91322 -3.69716,1.59886 -5.71149,1.97716 -1.187,0.22268 -4.46465,0.2733 -5.6324,0.0864 z m 5.1397,-4.89669 c 8.0154,-1.7835 14.89138,-10.3892 18.04741,-22.587439 0.76808,-2.968675 1.3878,-6.686208 1.69935,-10.194439 0.0951,-1.070106 0.20376,-4.547972 0.29391,-9.394895 0.0791,-4.232641 0.16921,-8.730221 0.20128,-9.994533 0.0282,-1.264311 0.10267,-4.120291 0.1579,-6.346583 0.18034,-7.321566 0.38964,-15.019085 0.44426,-16.341101 l 0.0541,-1.299274 -0.32555,0.357086 c -3.16556,3.46952 -11.80773,13.290919 -14.68059,16.683771 -14.78465,17.460687 -21.61908,29.038409 -22.89146,38.778918 -0.17793,1.360809 -0.14827,4.489209 0.0556,5.946779 0.45825,3.27122 1.46247,6.03545 3.06991,8.44959 0.8019,1.20448 2.72202,3.13676 3.88717,3.91207 1.57625,1.04872 3.40976,1.79252 5.24717,2.12863 1.03926,0.1903 3.69051,0.13548 4.73988,-0.0986 z m 86.60407,-88.853907 c 0.32199,-0.08364 0.94971,-0.340059 1.39519,-0.569383 1.15422,-0.594173 2.82341,-2.268508 3.92028,-3.932228 0.98344,-1.491686 2.12286,-3.715971 2.91494,-5.690302 1.15203,-2.87144 2.58379,-7.782821 2.31692,-7.947741 -0.17385,-0.1071807 -1.75347,-0.2979975 -2.45214,-0.2959996 -2.1856,0.005 -4.29275,1.1271956 -6.74351,3.5869666 -1.8333,1.840057 -2.60964,2.876053 -3.53144,4.712754 -1.29099,2.572154 -1.80662,4.564559 -1.80973,6.992679 -0.002,1.461935 0.009,1.579779 0.24859,2.03858 0.13752,0.267918 0.36904,0.575639 0.51452,0.684067 0.71672,0.535075 2.09641,0.714968 3.22644,0.420686 z m 75.70159,-1.057183 c 2.49296,-0.561716 5.14979,-3.7646 7.287,-8.784904 0.84447,-1.983694 2.2415,-6.202288 3.30082,-9.9672419 l 0.203,-0.7221836 -0.36658,-0.1036782 c -1.14232,-0.3225238 -2.78454,-0.1772761 -3.98248,0.3520741 -2.64172,1.1683113 -6.24249,4.4830366 -8.3559,7.6921276 -1.44542,2.194787 -2.47022,5.073242 -2.47022,6.93834 0,1.778106 1.58486,4.422577 2.80459,4.679697 0.46727,0.09867 0.8604,0.07762 1.57942,-0.08464 z M 324.1892,-16.287466 c -2.97368,-0.467266 -5.36274,-2.490669 -6.36631,-5.392562 -0.3145,-0.909088 -0.32855,-1.013259 -0.32855,-2.448652 0,-1.435398 0.0148,-1.539568 0.32855,-2.44865 1.10358,-3.191069 3.7945,-5.253139 7.13154,-5.464986 2.10359,-0.133685 4.14596,0.534871 5.57256,1.82368 0.22269,0.20134 0.40563,0.455745 0.40563,0.564622 0,0.198353 -0.59771,0.877886 -0.77208,0.877886 -0.0512,0 -0.35909,-0.208339 -0.68462,-0.463257 -1.31601,-1.029179 -2.8066,-1.502405 -4.43133,-1.40675 -1.66433,0.09817 -2.95195,0.688374 -4.16119,1.908118 -2.08128,2.099382 -2.5356,5.066383 -1.17716,7.687567 0.55542,1.071753 1.72989,2.214718 2.83093,2.754953 2.32494,1.140811 4.705,0.885746 6.84432,-0.73345 0.32855,-0.248919 0.68077,-0.452239 0.78229,-0.452239 0.25242,0 0.76884,0.535726 0.76884,0.797502 0,0.573939 -1.96056,1.818674 -3.48378,2.211715 -0.89624,0.231358 -2.41448,0.317027 -3.25947,0.184282 z m 30.55409,10e-5 c -0.75601,-0.135723 -1.6916,-0.465764 -2.29858,-0.811428 -0.75146,-0.4282 -1.52313,-1.060533 -1.52313,-1.248542 0,-0.27494 0.40465,-0.831507 0.64974,-0.892958 0.17533,-0.04509 0.36456,0.04509 0.76115,0.358587 1.95372,1.544322 4.3189,1.768438 5.9025,0.559312 0.62294,-0.475775 0.98268,-1.181178 0.97992,-1.921888 -0.007,-1.44256 -1.00496,-2.329759 -3.69576,-3.280313 -3.21839,-1.136959 -4.328,-2.14105 -4.55174,-4.119134 -0.0788,-0.696434 0.13011,-1.653148 0.4978,-2.279273 0.99851,-1.701231 3.2869,-2.496627 5.73248,-1.992509 0.77996,0.160781 2.11056,0.711065 2.43974,1.008952 0.23812,0.215339 0.22741,0.583454 -0.0248,0.940687 -0.26398,0.370105 -0.51264,0.3686 -1.20848,-0.01001 -2.38039,-1.289255 -5.07758,-0.833108 -5.85891,0.990869 -0.22617,0.528164 -0.20026,1.469953 0.0536,1.963056 0.44172,0.856306 1.18652,1.336489 3.17251,2.044897 2.89317,1.032037 4.03822,1.814461 4.67625,3.195421 0.1644,0.356081 0.20923,0.657978 0.21446,1.449217 0.006,0.912893 -0.02,1.049263 -0.28455,1.574628 -0.33354,0.658324 -1.21124,1.543768 -1.85719,1.873311 -1.13074,0.576891 -2.59173,0.807368 -3.77454,0.595419 z m -71.9192,-0.278434 c -0.15068,-0.166767 -0.16532,-0.837666 -0.16532,-7.588703 0,-6.599436 0.0148,-7.423083 0.15717,-7.563008 0.18682,-0.186793 0.94719,-0.212349 1.12222,-0.03505 0.0914,0.09115 0.1201,1.792376 0.1201,7.046162 v 6.926221 h 3.39814 c 3.26492,0 3.40596,0.01001 3.59803,0.199822 0.11138,0.111203 0.19977,0.333046 0.19977,0.499819 0,0.166767 -0.0886,0.38863 -0.19977,0.499815 -0.19305,0.19332 -0.33304,0.199822 -4.13223,0.199822 -3.68267,0 -3.94293,-0.01001 -4.09781,-0.182818 z m 10.94856,0.06309 c -0.0658,-0.06611 -0.11954,-0.174811 -0.11954,-0.241395 0,-0.205824 6.69888,-15.269757 6.8264,-15.350839 0.18854,-0.119691 0.63519,-0.09217 0.74098,0.04509 0.22368,0.290977 6.62484,15.072232 6.62484,15.29755 0,0.136224 -0.0712,0.27494 -0.15809,0.308514 -0.24063,0.09217 -0.83245,0.07262 -1.03234,-0.03505 -0.0999,-0.05358 -0.56461,-0.974846 -1.05926,-2.099979 l -0.88136,-2.00483 -3.95336,0.02496 -3.95335,0.02497 -0.8281,1.898952 c -0.45571,1.044459 -0.92285,1.977679 -1.03863,2.073889 -0.24335,0.202337 -0.98557,0.237384 -1.16791,0.0551 z m 10.37437,-5.330215 c 0,-0.09015 -3.224,-7.687559 -3.29819,-7.77255 -0.0595,-0.06809 -3.24544,7.152738 -3.37573,7.650705 -0.0448,0.163783 0.16347,0.174811 3.31411,0.174811 1.84789,0 3.35981,-0.02497 3.35981,-0.0531 z m 29.70387,5.330215 c -0.0664,-0.06611 -0.1201,-0.178276 -0.1201,-0.249919 0,-0.218379 6.68457,-15.252372 6.8198,-15.338217 0.28297,-0.179296 0.66821,-0.08863 0.81296,0.191302 0.50885,0.984856 6.55953,14.967409 6.55953,15.158371 0,0.27494 -0.16439,0.358086 -0.70782,0.358086 -0.24137,0 -0.45925,-0.06761 -0.56873,-0.177276 -0.0977,-0.09717 -0.55646,-1.041903 -1.02007,-2.098832 l -0.84297,-1.921739 -3.95219,0.0019 -3.95221,0.0018 -0.83992,1.952142 c -0.49581,1.152686 -0.92461,2.01144 -1.04673,2.096931 -0.25054,0.175293 -0.97549,0.191302 -1.14172,0.02496 z m 10.37436,-5.318893 c 0,-0.06111 -3.16246,-7.50792 -3.27022,-7.700486 -0.0775,-0.139245 -0.11009,-0.121712 -0.21896,0.116707 -0.55827,1.222997 -3.20705,7.431344 -3.20705,7.516987 0,0.0761 1.00136,0.108701 3.34817,0.108701 1.84154,0 3.34825,-0.01992 3.34825,-0.04005 z m 19.30949,5.318893 c -0.0663,-0.06611 -0.12047,-0.189832 -0.12084,-0.27494 -0.001,-0.164784 6.55673,-15.059516 6.72344,-15.27171 0.10712,-0.136224 0.55479,-0.165767 0.7384,-0.05006 0.12085,0.07712 6.61916,14.799639 6.70521,15.190777 0.0248,0.124177 -0.007,0.292443 -0.0745,0.374611 -0.1579,0.190307 -0.88767,0.196807 -1.15161,0.01001 -0.10861,-0.07662 -0.57933,-1.020166 -1.04668,-2.097074 l -0.84956,-1.957652 -3.95528,-0.0019 -3.95523,-0.0019 -0.826,1.923945 c -0.45425,1.058177 -0.91692,2.00267 -1.02813,2.098879 -0.23439,0.202837 -0.97641,0.237908 -1.15938,0.05508 z m 10.27595,-5.402078 c 0.002,-0.23138 -3.23786,-7.772754 -3.30738,-7.69638 -0.13678,0.150217 -3.36063,7.717914 -3.30963,7.768953 0.0282,0.02995 1.52908,0.05258 3.33389,0.05258 2.5578,0 3.28195,-0.02995 3.28312,-0.124714 z m 14.60043,5.332013 c -0.20923,-0.209336 -0.20999,-0.226872 -0.20999,-7.590254 0,-7.023179 0.009,-7.388525 0.18256,-7.545931 0.16069,-0.14525 0.50338,-0.164766 2.82344,-0.161782 2.84374,0.0037 3.63148,0.08965 4.81368,0.523356 1.05945,0.388636 1.75273,0.851941 2.72772,1.821879 0.99865,0.993521 1.53373,1.879719 1.96128,3.248253 0.19752,0.632338 0.23364,0.96062 0.2324,2.098832 -10e-4,1.569474 -0.14457,2.222636 -0.7534,3.4564 -0.96952,1.963764 -2.81501,3.472681 -4.96318,4.058037 -0.68658,0.187291 -1.12133,0.217331 -3.69173,0.256404 -2.85595,0.04509 -2.91769,0.04005 -3.12332,-0.165266 z m 6.3257,-1.406349 c 2.84875,-0.728592 4.75838,-3.214503 4.75838,-6.19442 0,-2.372982 -1.34331,-4.577636 -3.40396,-5.586631 -1.32024,-0.646406 -1.72393,-0.714922 -4.21293,-0.714922 h -2.17779 v 6.346524 6.34657 h 2.13287 c 1.79557,0 2.25466,-0.02993 2.90343,-0.197306 z m 11.51185,1.439304 c -0.13993,-0.139708 -0.15717,-0.970837 -0.15717,-7.64234 0,-7.29818 0.007,-7.487839 0.19303,-7.588753 0.12473,-0.06711 1.76649,-0.103141 4.64176,-0.103141 h 4.44847 l 0.15568,0.221866 c 0.21472,0.305985 0.19503,0.738103 -0.0448,0.9772 -0.19281,0.193321 -0.33303,0.199823 -4.09935,0.199823 h -3.89944 l 0.0248,2.723503 0.0248,2.723499 3.3895,0.02497 c 2.29814,0.01992 3.43256,0.06211 3.5231,0.137224 0.16643,0.137725 0.17607,0.903574 0.0148,1.06584 -0.0886,0.08865 -1.01497,0.119691 -3.54808,0.119691 h -3.42815 v 2.948417 2.94842 h 3.89794 c 3.76459,0 3.90465,0.005 4.09772,0.199797 0.11139,0.111203 0.19978,0.333045 0.19978,0.499818 0,0.166768 -0.0886,0.388634 -0.19978,0.499817 -0.19379,0.193817 -0.33303,0.199796 -4.64031,0.199796 -3.90351,0 -4.45945,-0.01992 -4.59754,-0.157278 z"
       id="path837"
       inkscape:connector-curvature="0"
       inkscape:export-xdpi="96"
       inkscape:export-ydpi="96" />
  </g>
</svg>
